<svg width="41" height="40" viewBox="0 0 41 40" fill="none" xmlns="http://www.w3.org/2000/svg">
<path d="M15.2497 36.6666C15.5663 36.4333 15.8663 36.1666 16.1497 35.8999L28.6997 23.3333H33.583C34.4671 23.3333 35.3149 23.6844 35.94 24.3096C36.5652 24.9347 36.9163 25.7825 36.9163 26.6666V33.3333C36.9163 34.2173 36.5652 35.0652 35.94 35.6903C35.3149 36.3154 34.4671 36.6666 33.583 36.6666H15.2497ZM6.91634 3.33325H13.583C14.4671 3.33325 15.3149 3.68444 15.94 4.30956C16.5652 4.93468 16.9163 5.78253 16.9163 6.66659V29.9999C16.9163 31.768 16.214 33.4637 14.9637 34.714C13.7135 35.9642 12.0178 36.6666 10.2497 36.6666C8.48156 36.6666 6.78587 35.9642 5.53563 34.714C4.28539 33.4637 3.58301 31.768 3.58301 29.9999V6.66659C3.58301 4.83325 5.08301 3.33325 6.91634 3.33325ZM10.2497 32.4999C10.9127 32.4999 11.5486 32.2365 12.0174 31.7677C12.4863 31.2988 12.7497 30.663 12.7497 29.9999C12.7497 29.3369 12.4863 28.701 12.0174 28.2322C11.5486 27.7633 10.9127 27.4999 10.2497 27.4999C9.58663 27.4999 8.95075 27.7633 8.48191 28.2322C8.01307 28.701 7.74967 29.3369 7.74967 29.9999C7.74967 30.663 8.01307 31.2988 8.48191 31.7677C8.95075 32.2365 9.58663 32.4999 10.2497 32.4999V32.4999Z" fill="#B2E840"/>
<path d="M20.25 31.6275V12.7609L23.7 9.31087C24.0096 9.00095 24.3772 8.75509 24.7819 8.58734C25.1865 8.41959 25.6203 8.33325 26.0583 8.33325C26.4964 8.33325 26.9301 8.41959 27.3348 8.58734C27.7395 8.75509 28.1071 9.00095 28.4167 9.31087L33.1333 14.0275C33.4433 14.3371 33.6891 14.7047 33.8569 15.1094C34.0246 15.5141 34.111 15.9478 34.111 16.3859C34.111 16.8239 34.0246 17.2577 33.8569 17.6623C33.6891 18.067 33.4433 18.4346 33.1333 18.7442L20.25 31.6275Z" fill="#6E733C"/>
</svg>
