<svg width="40" height="40" viewBox="0 0 40 40" fill="none" xmlns="http://www.w3.org/2000/svg">
<path d="M21.6672 8.00016L26.5338 19.3335C26.6236 19.5442 26.669 19.7711 26.6672 20.0002V33.3335C26.6672 34.2176 26.316 35.0654 25.6908 35.6905C25.0657 36.3156 24.2179 36.6668 23.3338 36.6668H13.3338C12.0309 36.6148 10.7672 36.2067 9.67995 35.4868C8.59273 34.7669 7.72365 33.7627 7.16715 32.5835L3.45049 24.0002C3.36641 23.7883 3.3267 23.5614 3.33382 23.3335V20.0002C3.33382 18.6741 3.8606 17.4023 4.79829 16.4646C5.73597 15.5269 7.00774 15.0002 8.33382 15.0002H15.0005V8.3335C15.0005 7.00741 15.5273 5.73564 16.465 4.79796C17.4026 3.86028 18.6744 3.3335 20.0005 3.3335C20.4425 3.3335 20.8664 3.50909 21.179 3.82165C21.4916 4.13421 21.6672 4.55814 21.6672 5.00016V8.00016Z" fill="#B2E840"/>
<path d="M35 18.3335H31.6667C30.7462 18.3335 30 19.0797 30 20.0002V35.0002C30 35.9206 30.7462 36.6668 31.6667 36.6668H35C35.9205 36.6668 36.6667 35.9206 36.6667 35.0002V20.0002C36.6667 19.0797 35.9205 18.3335 35 18.3335Z" fill="#6E733C"/>
</svg>
