<svg width="40" height="40" viewBox="0 0 40 40" fill="none" xmlns="http://www.w3.org/2000/svg">
<path d="M4.31634 22.3499C4.0049 22.0429 3.75758 21.6771 3.58877 21.2736C3.41996 20.8702 3.33302 20.4372 3.33301 19.9999V11.6666C3.33301 9.45645 4.21098 7.33683 5.77378 5.77403C7.33659 4.21123 9.4562 3.33325 11.6663 3.33325H19.983C20.8663 3.33325 21.7163 3.66659 22.3497 4.31659L35.683 17.6499C36.3038 18.2745 36.6523 19.1193 36.6523 19.9999C36.6523 20.8805 36.3038 21.7254 35.683 22.3499L22.3497 35.6833C21.7251 36.3041 20.8803 36.6526 19.9997 36.6526C19.1191 36.6526 18.2742 36.3041 17.6497 35.6833L4.31634 22.3499ZM11.6663 14.9999C12.5504 14.9999 13.3982 14.6487 14.0234 14.0236C14.6485 13.3985 14.9997 12.5506 14.9997 11.6666C14.9997 10.7825 14.6485 9.93468 14.0234 9.30956C13.3982 8.68444 12.5504 8.33325 11.6663 8.33325C10.7823 8.33325 9.93444 8.68444 9.30932 9.30956C8.6842 9.93468 8.33301 10.7825 8.33301 11.6666C8.33301 12.5506 8.6842 13.3985 9.30932 14.0236C9.93444 14.6487 10.7823 14.9999 11.6663 14.9999V14.9999Z" fill="#B2E840"/>
<path d="M19.9997 29.9999L29.9997 19.9999L23.333 13.3333L13.333 23.3499L19.9997 29.9999Z" fill="#6E733C"/>
</svg>
