<svg width="40" height="40" viewBox="0 0 40 40" fill="none" xmlns="http://www.w3.org/2000/svg">
<path d="M9.99967 18.3335V13.3335C9.99967 11.5002 11.4997 10.0002 13.333 10.0002H18.333C18.775 10.0002 19.199 9.82457 19.5115 9.51201C19.8241 9.19945 19.9997 8.77552 19.9997 8.3335V6.66683C19.9997 5.78277 20.3509 4.93493 20.976 4.30981C21.6011 3.68469 22.449 3.3335 23.333 3.3335C24.2171 3.3335 25.0649 3.68469 25.69 4.30981C26.3152 4.93493 26.6663 5.78277 26.6663 6.66683V8.3335C26.6663 8.77552 26.8419 9.19945 27.1545 9.51201C27.4671 9.82457 27.891 10.0002 28.333 10.0002H33.333C34.2171 10.0002 35.0649 10.3514 35.69 10.9765C36.3152 11.6016 36.6663 12.4494 36.6663 13.3335V18.3335C36.6663 18.7755 36.4907 19.1994 36.1782 19.512C35.8656 19.8246 35.4417 20.0002 34.9997 20.0002H33.333C32.449 20.0002 31.6011 20.3514 30.976 20.9765C30.3509 21.6016 29.9997 22.4494 29.9997 23.3335C29.9997 24.2176 30.3509 25.0654 30.976 25.6905C31.6011 26.3156 32.449 26.6668 33.333 26.6668H34.9997C35.4417 26.6668 35.8656 26.8424 36.1782 27.155C36.4907 27.4675 36.6663 27.8915 36.6663 28.3335V33.3335C36.6663 34.2176 36.3152 35.0654 35.69 35.6905C35.0649 36.3156 34.2171 36.6668 33.333 36.6668H28.333C27.891 36.6668 27.4671 36.4912 27.1545 36.1787C26.8419 35.8661 26.6663 35.4422 26.6663 35.0002V33.3335C26.6663 32.4494 26.3152 31.6016 25.69 30.9765C25.0649 30.3514 24.2171 30.0002 23.333 30.0002C22.449 30.0002 21.6011 30.3514 20.976 30.9765C20.3509 31.6016 19.9997 32.4494 19.9997 33.3335V35.0002C19.9997 35.4422 19.8241 35.8661 19.5115 36.1787C19.199 36.4912 18.775 36.6668 18.333 36.6668H13.333C12.449 36.6668 11.6011 36.3156 10.976 35.6905C10.3509 35.0654 9.99967 34.2176 9.99967 33.3335V28.3335C9.99967 27.8915 9.82408 27.4675 9.51152 27.155C9.19896 26.8424 8.77504 26.6668 8.33301 26.6668H6.66634C5.78229 26.6668 4.93444 26.3156 4.30932 25.6905C3.6842 25.0654 3.33301 24.2176 3.33301 23.3335C3.33301 22.4494 3.6842 21.6016 4.30932 20.9765C4.93444 20.3514 5.78229 20.0002 6.66634 20.0002H8.33301C8.77504 20.0002 9.19896 19.8246 9.51152 19.512C9.82408 19.1994 9.99967 18.7755 9.99967 18.3335Z" fill="#B2E840"/>
<path d="M36.6663 28.3332V33.3332C36.6663 34.2172 36.3152 35.0651 35.69 35.6902C35.0649 36.3153 34.2171 36.6665 33.333 36.6665H28.333C27.891 36.6665 27.4671 36.4909 27.1545 36.1784C26.8419 35.8658 26.6663 35.4419 26.6663 34.9998V33.3332C26.6663 32.4491 26.3152 31.6013 25.69 30.9762C25.0649 30.351 24.2171 29.9998 23.333 29.9998C22.449 29.9998 21.6011 30.351 20.976 30.9762C20.3509 31.6013 19.9997 32.4491 19.9997 33.3332V34.9998C19.9997 35.4419 19.8241 35.8658 19.5115 36.1784C19.199 36.4909 18.775 36.6665 18.333 36.6665H13.333C12.449 36.6665 11.6011 36.3153 10.976 35.6902C10.3509 35.0651 9.99967 34.2172 9.99967 33.3332V28.3332C9.99967 27.8911 9.82408 27.4672 9.51152 27.1547C9.19896 26.8421 8.77504 26.6665 8.33301 26.6665H6.66634C5.78229 26.6665 4.93444 26.3153 4.30932 25.6902C3.6842 25.0651 3.33301 24.2172 3.33301 23.3332C3.33301 22.4491 3.6842 21.6013 4.30932 20.9761C4.93444 20.351 5.78229 19.9998 6.66634 19.9998H8.33301C8.77504 19.9998 9.19896 19.8242 9.51152 19.5117C9.82408 19.1991 9.99967 18.7752 9.99967 18.3332V17.3332C10.8997 16.9332 11.9663 16.6665 13.283 16.6665C19.9497 16.6665 19.9497 23.3332 26.6497 23.3332C28.0497 23.3332 29.1497 23.0332 30.083 22.5832C29.9701 23.072 29.969 23.5799 30.0798 24.0692C30.1906 24.5585 30.4104 25.0165 30.7228 25.409C31.0352 25.8015 31.4322 26.1184 31.8841 26.3362C32.3361 26.5539 32.8313 26.6668 33.333 26.6665H34.9997C35.4417 26.6665 35.8656 26.8421 36.1782 27.1547C36.4907 27.4672 36.6663 27.8911 36.6663 28.3332Z" fill="#6E733C"/>
</svg>
