<svg width="40" height="40" viewBox="0 0 40 40" fill="none" xmlns="http://www.w3.org/2000/svg">
<path d="M30 21.6669V33.3335C30 33.7756 29.8244 34.1995 29.5119 34.512C29.1993 34.8246 28.7754 35.0002 28.3334 35.0002C27.8913 35.0002 27.4674 34.8246 27.1548 34.512C26.8423 34.1995 26.6667 33.7756 26.6667 33.3335V21.6669H21.6667C21.3405 21.6623 21.0228 21.5621 20.753 21.3786C20.4832 21.1952 20.2732 20.9366 20.149 20.6349C20.0248 20.3333 19.9918 20.0018 20.0542 19.6816C20.1166 19.3613 20.2716 19.0665 20.5 18.8335L27.1667 12.1669C27.4782 11.8615 27.8971 11.6904 28.3334 11.6904C28.7696 11.6904 29.1885 11.8615 29.5 12.1669L36.1667 18.8335C36.3951 19.0665 36.5501 19.3613 36.6125 19.6816C36.6749 20.0018 36.642 20.3333 36.5177 20.6349C36.3935 20.9366 36.1835 21.1952 35.9137 21.3786C35.6439 21.5621 35.3262 21.6623 35 21.6669H30Z" fill="#6E733C"/>
<path d="M4.99967 5H26.6663C27.1084 5 27.5323 5.17559 27.8449 5.48816C28.1574 5.80072 28.333 6.22464 28.333 6.66667C28.333 7.10869 28.1574 7.53262 27.8449 7.84518C27.5323 8.15774 27.1084 8.33333 26.6663 8.33333H4.99967C4.55765 8.33333 4.13372 8.15774 3.82116 7.84518C3.5086 7.53262 3.33301 7.10869 3.33301 6.66667C3.33301 6.22464 3.5086 5.80072 3.82116 5.48816C4.13372 5.17559 4.55765 5 4.99967 5ZM4.99967 11.6667H19.9997C20.4417 11.6667 20.8656 11.8423 21.1782 12.1548C21.4907 12.4674 21.6663 12.8913 21.6663 13.3333C21.6663 13.7754 21.4907 14.1993 21.1782 14.5118C20.8656 14.8244 20.4417 15 19.9997 15H4.99967C4.55765 15 4.13372 14.8244 3.82116 14.5118C3.5086 14.1993 3.33301 13.7754 3.33301 13.3333C3.33301 12.8913 3.5086 12.4674 3.82116 12.1548C4.13372 11.8423 4.55765 11.6667 4.99967 11.6667ZM4.99967 18.3333H13.333C13.775 18.3333 14.199 18.5089 14.5115 18.8215C14.8241 19.1341 14.9997 19.558 14.9997 20C14.9997 20.442 14.8241 20.866 14.5115 21.1785C14.199 21.4911 13.775 21.6667 13.333 21.6667H4.99967C4.55765 21.6667 4.13372 21.4911 3.82116 21.1785C3.5086 20.866 3.33301 20.442 3.33301 20C3.33301 19.558 3.5086 19.1341 3.82116 18.8215C4.13372 18.5089 4.55765 18.3333 4.99967 18.3333Z" fill="#B2E840"/>
</svg>
