<svg width="41" height="40" viewBox="0 0 41 40" fill="none" xmlns="http://www.w3.org/2000/svg">
<path d="M20.7497 36.6666C29.9544 36.6666 37.4163 29.2047 37.4163 19.9999C37.4163 10.7952 29.9544 3.33325 20.7497 3.33325C11.5449 3.33325 4.08301 10.7952 4.08301 19.9999C4.08301 29.2047 11.5449 36.6666 20.7497 36.6666Z" fill="#B2E840"/>
<path d="M12.0834 23.3333H29.4167C29.7084 23.335 29.9946 23.4133 30.2466 23.5603C30.4985 23.7073 30.7075 23.9178 30.8526 24.1709C30.9977 24.424 31.0738 24.7107 31.0734 25.0024C31.0729 25.2941 30.9959 25.5806 30.8501 25.8333C29.8256 27.6051 28.3531 29.0763 26.5803 30.0991C24.8074 31.1219 22.7968 31.6603 20.7501 31.6603C18.7034 31.6603 16.6927 31.1219 14.9199 30.0991C13.1471 29.0763 11.6745 27.6051 10.6501 25.8333C10.5042 25.5806 10.4272 25.2941 10.4268 25.0024C10.4263 24.7107 10.5024 24.424 10.6475 24.1709C10.7926 23.9178 11.0016 23.7073 11.2536 23.5603C11.5056 23.4133 11.7917 23.335 12.0834 23.3333V23.3333ZM14.9167 18.3333C14.2537 18.3333 13.6178 18.0699 13.149 17.601C12.6801 17.1322 12.4167 16.4963 12.4167 15.8333C12.4167 15.1702 12.6801 14.5343 13.149 14.0655C13.6178 13.5966 14.2537 13.3333 14.9167 13.3333C15.5798 13.3333 16.2157 13.5966 16.6845 14.0655C17.1533 14.5343 17.4167 15.1702 17.4167 15.8333C17.4167 16.4963 17.1533 17.1322 16.6845 17.601C16.2157 18.0699 15.5798 18.3333 14.9167 18.3333ZM26.5834 18.3333C25.9204 18.3333 25.2845 18.0699 24.8156 17.601C24.3468 17.1322 24.0834 16.4963 24.0834 15.8333C24.0834 15.1702 24.3468 14.5343 24.8156 14.0655C25.2845 13.5966 25.9204 13.3333 26.5834 13.3333C27.2464 13.3333 27.8823 13.5966 28.3512 14.0655C28.82 14.5343 29.0834 15.1702 29.0834 15.8333C29.0834 16.4963 28.82 17.1322 28.3512 17.601C27.8823 18.0699 27.2464 18.3333 26.5834 18.3333V18.3333Z" fill="#6E733C"/>
</svg>
