<svg width="40" height="40" viewBox="0 0 40 40" fill="none" xmlns="http://www.w3.org/2000/svg">
<path d="M19.9997 36.6668C29.2044 36.6668 36.6663 29.2049 36.6663 20.0002C36.6663 10.7954 29.2044 3.3335 19.9997 3.3335C10.7949 3.3335 3.33301 10.7954 3.33301 20.0002C3.33301 29.2049 10.7949 36.6668 19.9997 36.6668Z" fill="#B2E840"/>
<path d="M27.4496 30.0002H12.5496C12.2261 30.0026 11.9089 29.9109 11.6367 29.7363C11.3644 29.5616 11.1489 29.3114 11.0164 29.0164C10.8839 28.7213 10.8401 28.394 10.8904 28.0745C10.9407 27.7549 11.0828 27.457 11.2996 27.2168C12.391 25.9873 13.7308 25.003 15.2304 24.329C16.73 23.655 18.3554 23.3065 19.9996 23.3065C21.6437 23.3065 23.2691 23.655 24.7688 24.329C26.2684 25.003 27.6081 25.9873 28.6996 27.2168C28.9163 27.457 29.0585 27.7549 29.1087 28.0745C29.159 28.394 29.1152 28.7213 28.9827 29.0164C28.8502 29.3114 28.6347 29.5616 28.3624 29.7363C28.0902 29.9109 27.773 30.0026 27.4496 30.0002V30.0002ZM14.1662 18.3335C13.5032 18.3335 12.8673 18.0701 12.3985 17.6013C11.9296 17.1324 11.6662 16.4965 11.6662 15.8335C11.6662 15.1705 11.9296 14.5346 12.3985 14.0657C12.8673 13.5969 13.5032 13.3335 14.1662 13.3335C14.8293 13.3335 15.4652 13.5969 15.934 14.0657C16.4028 14.5346 16.6662 15.1705 16.6662 15.8335C16.6662 16.4965 16.4028 17.1324 15.934 17.6013C15.4652 18.0701 14.8293 18.3335 14.1662 18.3335ZM25.8329 18.3335C25.1699 18.3335 24.534 18.0701 24.0651 17.6013C23.5963 17.1324 23.3329 16.4965 23.3329 15.8335C23.3329 15.1705 23.5963 14.5346 24.0651 14.0657C24.534 13.5969 25.1699 13.3335 25.8329 13.3335C26.4959 13.3335 27.1318 13.5969 27.6007 14.0657C28.0695 14.5346 28.3329 15.1705 28.3329 15.8335C28.3329 16.4965 28.0695 17.1324 27.6007 17.6013C27.1318 18.0701 26.4959 18.3335 25.8329 18.3335V18.3335Z" fill="#6E733C"/>
</svg>
