<svg width="41" height="40" viewBox="0 0 41 40" fill="none" xmlns="http://www.w3.org/2000/svg">
<path d="M18.4165 35.3167L16.9998 35.7834C14.9832 36.4501 12.7832 35.5334 11.8332 33.6334L11.1665 32.3001C10.5198 31.0239 9.47964 29.9896 8.19982 29.3501L6.86649 28.6834C5.94812 28.2231 5.22576 27.4481 4.83109 26.4997C4.43643 25.5513 4.39576 24.4926 4.71649 23.5167L5.18316 22.0834C5.62833 20.7302 5.62833 19.27 5.18316 17.9167L4.71649 16.5001C4.04982 14.4834 4.96649 12.2834 6.86649 11.3334L8.19982 10.6667C9.47601 10.02 10.5103 8.97988 11.1498 7.70007L11.8165 6.36673C12.2768 5.44837 13.0518 4.726 14.0002 4.33134C14.9486 3.93667 16.0073 3.896 16.9832 4.21673L18.4165 4.6834C19.7697 5.12858 21.2299 5.12858 22.5832 4.6834L23.9998 4.21673C26.0165 3.55007 28.2165 4.46673 29.1665 6.36673L29.8332 7.70007C30.4799 8.97626 31.52 10.0105 32.7998 10.6501L34.1332 11.3167C35.0515 11.777 35.7739 12.552 36.1686 13.5004C36.5632 14.4488 36.6039 15.5075 36.2832 16.4834L35.8165 17.9167C35.3713 19.27 35.3713 20.7302 35.8165 22.0834L36.2832 23.5001C36.9498 25.5167 36.0332 27.7167 34.1332 28.6667L32.7998 29.3334C31.5236 29.9801 30.4894 31.0203 29.8498 32.3001L29.1832 33.6334C28.7229 34.5518 27.9479 35.2741 26.9995 35.6688C26.0511 36.0635 24.9924 36.1041 24.0165 35.7834L22.5832 35.3167C21.2299 34.8716 19.7697 34.8716 18.4165 35.3167V35.3167Z" fill="#B2E840"/>
<path d="M15 27.8334C14.8567 28.0244 14.6741 28.1825 14.4644 28.2968C14.2548 28.411 14.023 28.479 13.7848 28.4959C13.5466 28.5128 13.3076 28.4784 13.0839 28.3949C12.8602 28.3114 12.657 28.1808 12.4882 28.0119C12.3193 27.8431 12.1887 27.6399 12.1052 27.4162C12.0217 27.1925 11.9873 26.9535 12.0042 26.7153C12.0211 26.4771 12.089 26.2453 12.2033 26.0357C12.3176 25.826 12.4756 25.6434 12.6667 25.5001L26 12.1667C26.321 11.926 26.718 11.8092 27.1181 11.8376C27.5183 11.866 27.8948 12.0379 28.1785 12.3216C28.4622 12.6053 28.634 12.9818 28.6625 13.3819C28.6909 13.7821 28.574 14.1791 28.3333 14.5001L15 27.8334ZM26.3333 28.3334C25.6703 28.3334 25.0344 28.07 24.5656 27.6012C24.0967 27.1323 23.8333 26.4965 23.8333 25.8334C23.8333 25.1704 24.0967 24.5345 24.5656 24.0656C25.0344 23.5968 25.6703 23.3334 26.3333 23.3334C26.9964 23.3334 27.6323 23.5968 28.1011 24.0656C28.5699 24.5345 28.8333 25.1704 28.8333 25.8334C28.8333 26.4965 28.5699 27.1323 28.1011 27.6012C27.6323 28.07 26.9964 28.3334 26.3333 28.3334V28.3334ZM14.6667 16.6667C14.0036 16.6667 13.3677 16.4034 12.8989 15.9345C12.4301 15.4657 12.1667 14.8298 12.1667 14.1667C12.1667 13.5037 12.4301 12.8678 12.8989 12.399C13.3677 11.9301 14.0036 11.6667 14.6667 11.6667C15.3297 11.6667 15.9656 11.9301 16.4344 12.399C16.9033 12.8678 17.1667 13.5037 17.1667 14.1667C17.1667 14.8298 16.9033 15.4657 16.4344 15.9345C15.9656 16.4034 15.3297 16.6667 14.6667 16.6667Z" fill="#6E733C"/>
</svg>
